HIERARCHY
ROOT Hips
{
	OFFSET 53.078400 -8.368905 93.760803
	CHANNELS 6 Xposition Yposition Zposition Xrotation Yrotation Zrotation
	JOINT spine
	{
		OFFSET 0.000000 -0.429886 7.475601
		CHANNELS 3 Xrotation Yrotation Zrotation
		JOINT spine1
		{
			OFFSET 0.000000 -0.000002 9.923012
			CHANNELS 3 Xrotation Yrotation Zrotation
			JOINT spine2
			{
				OFFSET 0.000000 -0.000002 9.508041
				CHANNELS 3 Xrotation Yrotation Zrotation
				JOINT Neck
				{
					OFFSET 0.000000 -1.163844 24.411095
					CHANNELS 3 Xrotation Yrotation Zrotation
					JOINT Head
					{
						OFFSET 0.000000 -0.000001 7.375229
						CHANNELS 3 Xrotation Yrotation Zrotation
						End Site
						{
							OFFSET 0.000000 5.887407 17.852203
						}
					}
				}
				JOINT RightShoulder
				{
					OFFSET -4.003559 0.557467 10.267906
					CHANNELS 3 Xrotation Yrotation Zrotation
					JOINT RightArm
					{
						OFFSET 0.000000 -0.000003 13.467300
						CHANNELS 3 Xrotation Yrotation Zrotation
						JOINT RightArmRoll
						{
							OFFSET 0.000000 -0.000001 6.798584
							CHANNELS 3 Xrotation Yrotation Zrotation
							JOINT RightForeArm
							{
								OFFSET 0.000000 -0.000003 19.801804
								CHANNELS 3 Xrotation Yrotation Zrotation
								JOINT RightForeArmRoll
								{
									OFFSET 0.000000 -0.000002 7.629044
									CHANNELS 3 Xrotation Yrotation Zrotation
									JOINT RightHand
									{
										OFFSET 0.000000 -0.000002 15.309799
										CHANNELS 3 Xrotation Yrotation Zrotation
										End Site
										{
											OFFSET 0.000000 0.000000 0.100006
										}
									}
								}
							}
						}
					}
				}
				JOINT LeftShoulder
				{
					OFFSET 4.003559 0.557467 10.267906
					CHANNELS 3 Xrotation Yrotation Zrotation
					JOINT LeftArm
					{
						OFFSET 0.000000 -0.000003 13.467300
						CHANNELS 3 Xrotation Yrotation Zrotation
						JOINT LeftArmRoll
						{
							OFFSET 0.000000 -0.000001 6.798584
							CHANNELS 3 Xrotation Yrotation Zrotation
							JOINT LeftForeArm
							{
								OFFSET 0.000000 -0.000003 19.801804
								CHANNELS 3 Xrotation Yrotation Zrotation
								JOINT LeftForeArmRoll
								{
									OFFSET 0.000000 -0.000002 7.629059
									CHANNELS 3 Xrotation Yrotation Zrotation
									JOINT LeftHand
									{
										OFFSET 0.000000 -0.000002 15.309799
										CHANNELS 3 Xrotation Yrotation Zrotation
										End Site
										{
											OFFSET 0.000000 0.000000 0.100006
										}
									}
								}
							}
						}
					}
				}
			}
		}
	}
	JOINT RightUpLeg
	{
		OFFSET -6.626091 1.019270 -1.215050
		CHANNELS 3 Xrotation Yrotation Zrotation
		JOINT RightUpLegRoll
		{
			OFFSET 0.000000 -0.000003 17.951698
			CHANNELS 3 Xrotation Yrotation Zrotation
			JOINT RightLeg
			{
				OFFSET 0.000000 0.000004 -22.230400
				CHANNELS 3 Xrotation Yrotation Zrotation
				JOINT RightLegRoll
				{
					OFFSET 0.000000 -0.000004 22.303200
					CHANNELS 3 Xrotation Yrotation Zrotation
					JOINT RightFoot
					{
						OFFSET 0.000000 -0.000003 18.563599
						CHANNELS 3 Xrotation Yrotation Zrotation
						JOINT RightToeBase
						{
							OFFSET 0.000000 -0.000002 15.518295
							CHANNELS 3 Xrotation Yrotation Zrotation
							End Site
							{
								OFFSET 0.006577 0.866261 7.515381
							}
						}
					}
				}
			}
		}
	}
	JOINT LeftUpLeg
	{
		OFFSET 6.626091 1.019270 -1.215050
		CHANNELS 3 Xrotation Yrotation Zrotation
		JOINT LeftUpLegRoll
		{
			OFFSET 0.000000 -0.000003 17.951797
			CHANNELS 3 Xrotation Yrotation Zrotation
			JOINT LeftLeg
			{
				OFFSET 0.000000 -0.000003 22.230293
				CHANNELS 3 Xrotation Yrotation Zrotation
				JOINT LeftLegRoll
				{
					OFFSET 0.000000 -0.000004 22.509308
					CHANNELS 3 Xrotation Yrotation Zrotation
					JOINT LeftFoot
					{
						OFFSET 0.000000 -0.000003 18.357498
						CHANNELS 3 Xrotation Yrotation Zrotation
						JOINT LeftToeBase
						{
							OFFSET 0.000000 -0.000003 15.518295
							CHANNELS 3 Xrotation Yrotation Zrotation
							End Site
							{
								OFFSET -0.029476 0.866262 7.515396
							}
						}
					}
				}
			}
		}
	}
}
MOTION
Frames: 6
Frame Time: 0.041667
53.922699 -7.400525 93.725395 -5.829076 0.716713 -1.129853 0.015076 -0.387279 0.009015 4.033099 -0.762714 0.023791 5.678234 -0.762481 0.032944 -5.089904 10.445263 -1.563753 4.518380 -11.687967 -2.060778 -3.037670 -65.791681 -4.292623 -7.293188 -106.093540 20.483230 -0.000011 0.000001 -0.000009 3.388573 -2.222841 -1.288887 -0.000001 -0.000030 -3.004201 -5.000182 -7.999819 0.000035 -4.998374 75.396928 7.310106 -44.769185 98.562328 20.900225 0.000000 -0.000001 0.000004 7.740791 3.553020 0.694988 -0.000002 0.000006 3.007449 -5.000200 7.999610 -0.000083 1.063050 178.721216 -1.136327 -179.999991 0.000005 -1.094000 170.174628 -2.275164 -0.643921 -0.000002 0.000001 0.154454 70.033713 6.829758 2.222379 25.456962 -7.355613 -0.000001 2.358562 179.436473 3.045940 -0.000005 -0.000004 -1.060200 -6.534242 2.189568 0.312665 0.000002 0.000001 -0.071607 68.933281 -6.848478 -2.218084 25.456957 7.355615 -0.000000 
53.921799 -7.383887 93.727097 -5.790036 0.718861 -1.129879 0.016740 -0.387401 0.006532 4.036420 -0.764042 0.018697 5.681556 -0.763838 0.027873 -5.184564 10.460382 -1.547399 4.530209 -11.681998 -2.055301 -3.013151 -65.827697 -4.268453 -7.810654 -106.069491 20.058481 -0.000011 0.000002 -0.000009 3.258289 -2.145968 -1.293262 -0.000001 -0.000030 -3.004180 -5.000182 -7.999819 0.000035 -5.036777 75.384067 7.350540 -45.552164 98.640472 21.701492 0.000000 0.000001 0.000001 7.610063 3.545557 0.696783 -0.000001 0.000007 3.007449 -5.000201 7.999611 -0.000082 1.007994 178.714195 -1.149681 -179.999991 0.000005 -1.093003 170.170243 -2.270207 -0.644253 -0.000001 0.000001 0.154467 70.035824 6.829751 2.222347 25.456965 -7.355615 -0.000002 2.300517 179.432457 3.047890 -0.000005 -0.000004 -1.059440 -6.543049 2.189509 0.312741 0.000002 0.000001 -0.071105 68.932646 -6.848477 -2.217822 25.456957 7.355615 -0.000000 
53.937599 -7.353316 93.719902 -5.750626 0.721035 -1.129329 0.018445 -0.387583 0.003800 4.039811 -0.765538 0.013100 5.684949 -0.765366 0.022301 -5.280256 10.477643 -1.530376 4.541442 -11.677133 -2.049579 -2.987498 -65.862128 -4.242844 -8.322083 -106.050442 19.641140 -0.000011 0.000001 -0.000011 3.126659 -2.067840 -1.297291 -0.000000 -0.000030 -3.004150 -5.000183 -7.999819 0.000033 -5.076314 75.372271 7.392284 -46.327793 98.719832 22.495498 0.000001 0.000001 0.000005 7.475463 3.538476 0.698551 -0.000001 0.000007 3.007450 -5.000200 7.999610 -0.000082 0.952123 178.707173 -1.163183 -179.999991 0.000005 -1.093003 170.165175 -2.265245 -0.643600 -0.000002 0.000001 0.154486 70.038037 6.829678 2.222399 25.456967 -7.355616 -0.000001 2.241237 179.428441 3.049940 -0.000005 -0.000004 -1.058701 -6.552935 2.189317 0.312836 0.000003 0.000001 -0.070594 68.931813 -6.848497 -2.217577 25.456957 7.355614 -0.000000 
53.929699 -7.335966 93.718109 -5.710979 0.723227 -1.128374 0.020174 -0.387806 0.000894 4.043254 -0.767150 0.007150 5.688381 -0.767016 0.016377 -5.376679 10.496351 -1.512863 4.552249 -11.673276 -2.043670 -2.961040 -65.895268 -4.216188 -8.829020 -106.035402 19.229409 -0.000011 0.000001 -0.000008 2.994066 -1.988804 -1.300950 -0.000001 -0.000029 -3.004112 -5.000183 -7.999820 0.000036 -5.116573 75.361261 7.434860 -47.093198 98.800647 23.279272 0.000000 0.000001 0.000002 7.338173 3.531661 0.700280 -0.000001 0.000006 3.007449 -5.000200 7.999611 -0.000081 0.895688 178.700152 -1.176770 -179.999991 0.000005 -1.092006 170.159642 -2.260281 -0.643962 -0.000002 0.000001 0.154509 70.040154 6.829669 2.222366 25.456965 -7.355615 -0.000002 2.181106 179.425409 3.052116 -0.000005 -0.000004 -1.057960 -6.563600 2.189012 0.312944 0.000003 0.000001 -0.070076 68.930857 -6.848476 -2.217332 25.456957 7.355613 -0.000000 
53.914700 -7.319241 93.724609 -5.671166 0.725432 -1.127183 0.021918 -0.388054 -0.002110 4.046715 -0.768831 0.000998 5.691854 -0.768733 0.010253 -5.473505 10.515913 -1.495039 4.562840 -11.669818 -2.037676 -2.934057 -65.927820 -4.188884 -9.334235 -106.021461 18.819900 -0.000011 0.000002 -0.000009 2.860951 -1.909270 -1.304244 -0.000001 -0.000029 -3.004071 -5.000183 -7.999820 0.000035 -5.157194 75.350538 7.477866 -47.846981 98.882964 24.051405 0.000001 0.000000 0.000005 7.199333 3.525011 0.701981 -0.000001 0.000006 3.007451 -5.000199 7.999610 -0.000082 0.838930 178.693130 -1.190405 -179.999991 0.000005 -1.090995 170.153850 -2.255315 -0.643337 -0.000001 0.000001 0.154534 70.042354 6.829597 2.222418 25.456964 -7.355616 -0.000001 2.120475 179.421392 3.054306 -0.000004 -0.000004 -1.057220 -6.574697 2.188645 0.313058 0.000002 0.000001 -0.069556 68.929811 -6.848483 -2.217100 25.456959 7.355615 0.000000 
53.912399 -7.297130 93.717293 -5.631326 0.727641 -1.125954 0.023663 -0.388308 -0.005140 4.050187 -0.770529 -0.005203 5.695326 -0.770469 0.004078 -5.570460 10.535637 -1.477093 4.573365 -11.666560 -2.031647 -2.906931 -65.960161 -4.161406 -9.838486 -106.009631 18.411661 -0.000011 0.000001 -0.000011 2.727722 -1.829606 -1.307166 -0.000000 -0.000030 -3.004031 -5.000182 -7.999819 0.000034 -5.197940 75.339992 7.521013 -48.587217 98.966839 24.809931 -0.000000 0.000001 0.000003 7.060106 3.518408 0.703661 -0.000001 0.000007 3.007448 -5.000201 7.999611 -0.000081 0.782087 178.686122 -1.204044 -179.999991 0.000005 -1.090995 170.147990 -2.250349 -0.642713 -0.000002 0.000001 0.154561 70.044573 6.829558 2.222474 25.456964 -7.355614 -0.000001 2.059722 179.417363 3.056516 -0.000005 -0.000004 -1.056490 -6.585914 2.188258 0.313173 0.000002 0.000001 -0.069035 68.928753 -6.848492 -2.216765 25.456959 7.355615 -0.000000 
